<mxfile modified="2022-05-23T01:19:45.484Z" host="app.diagrams.net" agent="5.0 (Macintosh; Intel Mac OS X 10_15_7) AppleWebKit/537.36 (KHTML, like Gecko) Chrome/101.0.4951.64 Safari/537.36" etag="7OqkrjReSv1knC1mjuke" version="17.5.0" type="github">
  <diagram id="C2fSY1v2SiZeoUbDoYyL" name="Page-1">
    <mxGraphModel dx="2189" dy="1095" grid="1" gridSize="10" guides="1" tooltips="1" connect="1" arrows="1" fold="1" page="1" pageScale="1" pageWidth="1169" pageHeight="827" math="0" shadow="0">
      <root>
        <mxCell id="0" />
        <mxCell id="1" parent="0" />
        <mxCell id="RCpCHY5iKIiHO_AiIjEv-93" value="" style="rounded=0;whiteSpace=wrap;html=1;fontSize=20;fillColor=#dae8fc;strokeColor=#6c8ebf;" vertex="1" parent="1">
          <mxGeometry x="170" y="160" width="1550" height="920" as="geometry" />
        </mxCell>
        <mxCell id="3ne1QswCM8ZiEu4GHsYG-31" value="Company Goods Delivery Procedure" style="text;html=1;strokeColor=none;fillColor=none;align=center;verticalAlign=middle;whiteSpace=wrap;rounded=0;fontStyle=1;fontSize=20;fontColor=#4D4D4D;" parent="1" vertex="1">
          <mxGeometry x="189.5" y="50" width="790" height="30" as="geometry" />
        </mxCell>
        <mxCell id="3ne1QswCM8ZiEu4GHsYG-32" value="" style="line;strokeWidth=2;html=1;fontSize=20;fontColor=#4D4D4D;" parent="1" vertex="1">
          <mxGeometry x="103.5" y="80" width="960" height="10" as="geometry" />
        </mxCell>
        <mxCell id="RCpCHY5iKIiHO_AiIjEv-117" value="" style="group" vertex="1" connectable="0" parent="1">
          <mxGeometry x="440" y="540" width="1110" height="442.5" as="geometry" />
        </mxCell>
        <mxCell id="RCpCHY5iKIiHO_AiIjEv-101" value="" style="group" vertex="1" connectable="0" parent="RCpCHY5iKIiHO_AiIjEv-117">
          <mxGeometry width="1110" height="442.5" as="geometry" />
        </mxCell>
        <mxCell id="RCpCHY5iKIiHO_AiIjEv-97" value="" style="rounded=0;whiteSpace=wrap;html=1;fontSize=20;fillColor=#fff2cc;strokeColor=#d6b656;" vertex="1" parent="RCpCHY5iKIiHO_AiIjEv-101">
          <mxGeometry width="1110" height="442.5" as="geometry" />
        </mxCell>
        <mxCell id="RCpCHY5iKIiHO_AiIjEv-84" value="" style="group" vertex="1" connectable="0" parent="RCpCHY5iKIiHO_AiIjEv-101">
          <mxGeometry x="100.00000000000011" y="32.5" width="766.1" height="360" as="geometry" />
        </mxCell>
        <mxCell id="RCpCHY5iKIiHO_AiIjEv-15" value="混合云虚拟机" style="rounded=1;whiteSpace=wrap;html=1;" vertex="1" parent="RCpCHY5iKIiHO_AiIjEv-84">
          <mxGeometry x="241.02515759312323" width="105.36618911174786" height="52.68292682926829" as="geometry" />
        </mxCell>
        <mxCell id="RCpCHY5iKIiHO_AiIjEv-19" value="管理员" style="rounded=1;whiteSpace=wrap;html=1;" vertex="1" parent="RCpCHY5iKIiHO_AiIjEv-84">
          <mxGeometry y="114.14634146341464" width="105.36618911174786" height="52.68292682926829" as="geometry" />
        </mxCell>
        <mxCell id="RCpCHY5iKIiHO_AiIjEv-22" value="权限管理员" style="rounded=1;whiteSpace=wrap;html=1;" vertex="1" parent="RCpCHY5iKIiHO_AiIjEv-84">
          <mxGeometry x="241.02515759312323" y="114.14634146341464" width="105.36618911174786" height="52.68292682926829" as="geometry" />
        </mxCell>
        <mxCell id="RCpCHY5iKIiHO_AiIjEv-23" value="所有权限" style="rounded=1;whiteSpace=wrap;html=1;" vertex="1" parent="RCpCHY5iKIiHO_AiIjEv-84">
          <mxGeometry y="219.5121951219512" width="105.36618911174786" height="52.68292682926829" as="geometry" />
        </mxCell>
        <mxCell id="RCpCHY5iKIiHO_AiIjEv-24" value="管理权限" style="rounded=1;whiteSpace=wrap;html=1;" vertex="1" parent="RCpCHY5iKIiHO_AiIjEv-84">
          <mxGeometry x="241.02515759312323" y="219.5121951219512" width="105.36618911174786" height="52.68292682926829" as="geometry" />
        </mxCell>
        <mxCell id="RCpCHY5iKIiHO_AiIjEv-25" value="资源管理员" style="rounded=1;whiteSpace=wrap;html=1;" vertex="1" parent="RCpCHY5iKIiHO_AiIjEv-84">
          <mxGeometry x="555.3676217765044" y="114.14634146341464" width="105.36618911174786" height="52.68292682926829" as="geometry" />
        </mxCell>
        <mxCell id="RCpCHY5iKIiHO_AiIjEv-26" value="增删查改" style="rounded=1;whiteSpace=wrap;html=1;" vertex="1" parent="RCpCHY5iKIiHO_AiIjEv-84">
          <mxGeometry x="10.536618911174786" y="316.0975609756098" width="84.29295128939829" height="43.90243902439024" as="geometry" />
        </mxCell>
        <mxCell id="RCpCHY5iKIiHO_AiIjEv-27" value="节点管理" style="rounded=1;whiteSpace=wrap;html=1;" vertex="1" parent="RCpCHY5iKIiHO_AiIjEv-84">
          <mxGeometry x="463.172206303725" y="219.5121951219512" width="105.36618911174786" height="52.68292682926829" as="geometry" />
        </mxCell>
        <mxCell id="RCpCHY5iKIiHO_AiIjEv-28" value="实例展示" style="rounded=1;whiteSpace=wrap;html=1;" vertex="1" parent="RCpCHY5iKIiHO_AiIjEv-84">
          <mxGeometry x="660.7338108882522" y="219.5121951219512" width="105.36618911174786" height="52.68292682926829" as="geometry" />
        </mxCell>
        <mxCell id="RCpCHY5iKIiHO_AiIjEv-52" value="权限管理页面&lt;br&gt;增 删 查 改" style="rounded=1;whiteSpace=wrap;html=1;" vertex="1" parent="RCpCHY5iKIiHO_AiIjEv-84">
          <mxGeometry x="153.65902578796562" y="316.0975609756098" width="83.41489971346705" height="43.90243902439024" as="geometry" />
        </mxCell>
        <mxCell id="RCpCHY5iKIiHO_AiIjEv-53" value="节点管理页面&lt;br&gt;只读" style="rounded=1;whiteSpace=wrap;html=1;" vertex="1" parent="RCpCHY5iKIiHO_AiIjEv-84">
          <mxGeometry x="252.00080229226361" y="316.0975609756098" width="83.41489971346705" height="43.90243902439024" as="geometry" />
        </mxCell>
        <mxCell id="RCpCHY5iKIiHO_AiIjEv-54" value="实例展示页面&lt;br&gt;只读" style="rounded=1;whiteSpace=wrap;html=1;" vertex="1" parent="RCpCHY5iKIiHO_AiIjEv-84">
          <mxGeometry x="351.22063037249285" y="316.0975609756098" width="83.41489971346705" height="43.90243902439024" as="geometry" />
        </mxCell>
        <mxCell id="RCpCHY5iKIiHO_AiIjEv-55" value="权限管理页面&lt;br&gt;只读" style="rounded=1;whiteSpace=wrap;html=1;" vertex="1" parent="RCpCHY5iKIiHO_AiIjEv-84">
          <mxGeometry x="474.1478510028653" y="316.0975609756098" width="83.41489971346705" height="43.90243902439024" as="geometry" />
        </mxCell>
        <mxCell id="RCpCHY5iKIiHO_AiIjEv-56" value="节点管理页面&lt;br&gt;增 删 查 改" style="rounded=1;whiteSpace=wrap;html=1;" vertex="1" parent="RCpCHY5iKIiHO_AiIjEv-84">
          <mxGeometry x="572.4896275071633" y="316.0975609756098" width="83.41489971346705" height="43.90243902439024" as="geometry" />
        </mxCell>
        <mxCell id="RCpCHY5iKIiHO_AiIjEv-57" value="实例展示页面&lt;br&gt;增 删 查 改" style="rounded=1;whiteSpace=wrap;html=1;" vertex="1" parent="RCpCHY5iKIiHO_AiIjEv-84">
          <mxGeometry x="671.7094555873927" y="316.0975609756098" width="83.41489971346705" height="43.90243902439024" as="geometry" />
        </mxCell>
        <mxCell id="RCpCHY5iKIiHO_AiIjEv-65" value="" style="endArrow=classic;html=1;rounded=0;exitX=0.5;exitY=1;exitDx=0;exitDy=0;entryX=0.5;entryY=0;entryDx=0;entryDy=0;" edge="1" parent="RCpCHY5iKIiHO_AiIjEv-84" source="RCpCHY5iKIiHO_AiIjEv-15" target="RCpCHY5iKIiHO_AiIjEv-19">
          <mxGeometry width="50" height="50" relative="1" as="geometry">
            <mxPoint x="26.341547277936964" y="79.02439024390245" as="sourcePoint" />
            <mxPoint x="70.24412607449857" y="35.1219512195122" as="targetPoint" />
            <Array as="points">
              <mxPoint x="294.1472779369627" y="79.02439024390245" />
              <mxPoint x="52.68309455587393" y="79.02439024390245" />
            </Array>
          </mxGeometry>
        </mxCell>
        <mxCell id="RCpCHY5iKIiHO_AiIjEv-66" value="" style="endArrow=classic;html=1;rounded=0;exitX=0.5;exitY=1;exitDx=0;exitDy=0;entryX=0.5;entryY=0;entryDx=0;entryDy=0;" edge="1" parent="RCpCHY5iKIiHO_AiIjEv-84" source="RCpCHY5iKIiHO_AiIjEv-15" target="RCpCHY5iKIiHO_AiIjEv-22">
          <mxGeometry width="50" height="50" relative="1" as="geometry">
            <mxPoint x="302.48876790830946" y="61.46341463414633" as="sourcePoint" />
            <mxPoint x="61.46361031518625" y="122.92682926829266" as="targetPoint" />
          </mxGeometry>
        </mxCell>
        <mxCell id="RCpCHY5iKIiHO_AiIjEv-67" value="" style="endArrow=classic;html=1;rounded=0;exitX=0.5;exitY=1;exitDx=0;exitDy=0;entryX=0.5;entryY=0;entryDx=0;entryDy=0;" edge="1" parent="RCpCHY5iKIiHO_AiIjEv-84" source="RCpCHY5iKIiHO_AiIjEv-15" target="RCpCHY5iKIiHO_AiIjEv-25">
          <mxGeometry width="50" height="50" relative="1" as="geometry">
            <mxPoint x="302.48876790830946" y="61.46341463414633" as="sourcePoint" />
            <mxPoint x="307.31805157593124" y="122.92682926829266" as="targetPoint" />
            <Array as="points">
              <mxPoint x="294.1472779369627" y="79.02439024390245" />
              <mxPoint x="608.4897421203439" y="79.02439024390245" />
            </Array>
          </mxGeometry>
        </mxCell>
        <mxCell id="RCpCHY5iKIiHO_AiIjEv-68" value="" style="endArrow=classic;html=1;rounded=0;exitX=0.5;exitY=1;exitDx=0;exitDy=0;entryX=0.5;entryY=0;entryDx=0;entryDy=0;" edge="1" parent="RCpCHY5iKIiHO_AiIjEv-84" source="RCpCHY5iKIiHO_AiIjEv-19" target="RCpCHY5iKIiHO_AiIjEv-23">
          <mxGeometry width="50" height="50" relative="1" as="geometry">
            <mxPoint x="-149.26876790830946" y="245.85365853658533" as="sourcePoint" />
            <mxPoint x="-105.36618911174786" y="201.95121951219514" as="targetPoint" />
          </mxGeometry>
        </mxCell>
        <mxCell id="RCpCHY5iKIiHO_AiIjEv-69" value="" style="endArrow=classic;html=1;rounded=0;exitX=0.5;exitY=1;exitDx=0;exitDy=0;entryX=0.5;entryY=0;entryDx=0;entryDy=0;" edge="1" parent="RCpCHY5iKIiHO_AiIjEv-84" source="RCpCHY5iKIiHO_AiIjEv-23" target="RCpCHY5iKIiHO_AiIjEv-26">
          <mxGeometry width="50" height="50" relative="1" as="geometry">
            <mxPoint x="61.46361031518625" y="175.60975609756096" as="sourcePoint" />
            <mxPoint x="61.46361031518625" y="228.2926829268293" as="targetPoint" />
          </mxGeometry>
        </mxCell>
        <mxCell id="RCpCHY5iKIiHO_AiIjEv-70" value="" style="endArrow=classic;html=1;rounded=0;entryX=0.5;entryY=0;entryDx=0;entryDy=0;exitX=0.5;exitY=1;exitDx=0;exitDy=0;" edge="1" parent="RCpCHY5iKIiHO_AiIjEv-84" source="RCpCHY5iKIiHO_AiIjEv-22" target="RCpCHY5iKIiHO_AiIjEv-24">
          <mxGeometry width="50" height="50" relative="1" as="geometry">
            <mxPoint x="245.854441260745" y="228.2926829268293" as="sourcePoint" />
            <mxPoint x="289.75702005730665" y="184.39024390243904" as="targetPoint" />
          </mxGeometry>
        </mxCell>
        <mxCell id="RCpCHY5iKIiHO_AiIjEv-73" value="" style="endArrow=classic;html=1;rounded=0;entryX=0.5;entryY=0;entryDx=0;entryDy=0;" edge="1" parent="RCpCHY5iKIiHO_AiIjEv-84" target="RCpCHY5iKIiHO_AiIjEv-56">
          <mxGeometry width="50" height="50" relative="1" as="geometry">
            <mxPoint x="518.050429799427" y="289.7560975609756" as="sourcePoint" />
            <mxPoint x="-166.8297994269341" y="254.63414634146343" as="targetPoint" />
            <Array as="points">
              <mxPoint x="711.2217765042981" y="289.7560975609756" />
              <mxPoint x="614.6361031518625" y="289.7560975609756" />
            </Array>
          </mxGeometry>
        </mxCell>
        <mxCell id="RCpCHY5iKIiHO_AiIjEv-74" value="" style="endArrow=classic;html=1;rounded=0;exitX=0.5;exitY=1;exitDx=0;exitDy=0;entryX=0.5;entryY=0;entryDx=0;entryDy=0;" edge="1" parent="RCpCHY5iKIiHO_AiIjEv-84" source="RCpCHY5iKIiHO_AiIjEv-28" target="RCpCHY5iKIiHO_AiIjEv-57">
          <mxGeometry width="50" height="50" relative="1" as="geometry">
            <mxPoint x="-201.95186246418336" y="307.3170731707317" as="sourcePoint" />
            <mxPoint x="-158.04928366762178" y="263.4146341463415" as="targetPoint" />
          </mxGeometry>
        </mxCell>
        <mxCell id="RCpCHY5iKIiHO_AiIjEv-75" value="" style="endArrow=classic;html=1;rounded=0;exitX=0.5;exitY=1;exitDx=0;exitDy=0;entryX=0.5;entryY=0;entryDx=0;entryDy=0;" edge="1" parent="RCpCHY5iKIiHO_AiIjEv-84" source="RCpCHY5iKIiHO_AiIjEv-27" target="RCpCHY5iKIiHO_AiIjEv-55">
          <mxGeometry width="50" height="50" relative="1" as="geometry">
            <mxPoint x="-193.17134670487107" y="316.0975609756098" as="sourcePoint" />
            <mxPoint x="-149.26876790830946" y="272.1951219512195" as="targetPoint" />
          </mxGeometry>
        </mxCell>
        <mxCell id="RCpCHY5iKIiHO_AiIjEv-76" value="" style="endArrow=classic;html=1;rounded=0;exitX=0.5;exitY=1;exitDx=0;exitDy=0;entryX=0.5;entryY=0;entryDx=0;entryDy=0;" edge="1" parent="RCpCHY5iKIiHO_AiIjEv-84" source="RCpCHY5iKIiHO_AiIjEv-25" target="RCpCHY5iKIiHO_AiIjEv-28">
          <mxGeometry width="50" height="50" relative="1" as="geometry">
            <mxPoint x="-184.39083094555875" y="324.8780487804878" as="sourcePoint" />
            <mxPoint x="-140.48825214899713" y="280.9756097560976" as="targetPoint" />
            <Array as="points">
              <mxPoint x="608.4897421203439" y="193.17073170731706" />
              <mxPoint x="713.8559312320917" y="193.17073170731706" />
            </Array>
          </mxGeometry>
        </mxCell>
        <mxCell id="RCpCHY5iKIiHO_AiIjEv-77" value="" style="endArrow=classic;html=1;rounded=0;exitX=0.5;exitY=1;exitDx=0;exitDy=0;entryX=0.5;entryY=0;entryDx=0;entryDy=0;" edge="1" parent="RCpCHY5iKIiHO_AiIjEv-84" source="RCpCHY5iKIiHO_AiIjEv-25" target="RCpCHY5iKIiHO_AiIjEv-27">
          <mxGeometry width="50" height="50" relative="1" as="geometry">
            <mxPoint x="-175.61031518624642" y="333.6585365853658" as="sourcePoint" />
            <mxPoint x="-131.7077363896848" y="289.7560975609756" as="targetPoint" />
            <Array as="points">
              <mxPoint x="608.4897421203439" y="193.17073170731706" />
              <mxPoint x="516.2943266475645" y="193.17073170731706" />
            </Array>
          </mxGeometry>
        </mxCell>
        <mxCell id="RCpCHY5iKIiHO_AiIjEv-78" value="" style="endArrow=classic;html=1;rounded=0;entryX=0.5;entryY=0;entryDx=0;entryDy=0;exitX=0.5;exitY=1;exitDx=0;exitDy=0;" edge="1" parent="RCpCHY5iKIiHO_AiIjEv-84" source="RCpCHY5iKIiHO_AiIjEv-24" target="RCpCHY5iKIiHO_AiIjEv-54">
          <mxGeometry width="50" height="50" relative="1" as="geometry">
            <mxPoint x="395.12320916905446" y="237.0731707317073" as="sourcePoint" />
            <mxPoint x="-122.9272206303725" y="298.5365853658536" as="targetPoint" />
            <Array as="points">
              <mxPoint x="294.1472779369627" y="289.7560975609756" />
              <mxPoint x="393.367106017192" y="289.7560975609756" />
            </Array>
          </mxGeometry>
        </mxCell>
        <mxCell id="RCpCHY5iKIiHO_AiIjEv-79" value="" style="endArrow=classic;html=1;rounded=0;exitX=0.5;exitY=1;exitDx=0;exitDy=0;" edge="1" parent="RCpCHY5iKIiHO_AiIjEv-84" source="RCpCHY5iKIiHO_AiIjEv-24" target="RCpCHY5iKIiHO_AiIjEv-53">
          <mxGeometry width="50" height="50" relative="1" as="geometry">
            <mxPoint x="-158.04928366762178" y="351.2195121951219" as="sourcePoint" />
            <mxPoint x="-114.14670487106018" y="307.3170731707317" as="targetPoint" />
          </mxGeometry>
        </mxCell>
        <mxCell id="RCpCHY5iKIiHO_AiIjEv-80" value="" style="endArrow=classic;html=1;rounded=0;exitX=0.5;exitY=1;exitDx=0;exitDy=0;entryX=0.5;entryY=0;entryDx=0;entryDy=0;" edge="1" parent="RCpCHY5iKIiHO_AiIjEv-84" source="RCpCHY5iKIiHO_AiIjEv-24" target="RCpCHY5iKIiHO_AiIjEv-52">
          <mxGeometry width="50" height="50" relative="1" as="geometry">
            <mxPoint x="-149.26876790830946" y="360" as="sourcePoint" />
            <mxPoint x="-105.36618911174786" y="316.0975609756098" as="targetPoint" />
            <Array as="points">
              <mxPoint x="294.1472779369627" y="289.7560975609756" />
              <mxPoint x="195.80550143266478" y="289.7560975609756" />
            </Array>
          </mxGeometry>
        </mxCell>
        <mxCell id="RCpCHY5iKIiHO_AiIjEv-85" value="" style="endArrow=none;dashed=1;html=1;dashPattern=1 3;strokeWidth=2;rounded=0;" edge="1" parent="RCpCHY5iKIiHO_AiIjEv-84">
          <mxGeometry width="50" height="50" relative="1" as="geometry">
            <mxPoint x="-60.000000000000114" y="80.5" as="sourcePoint" />
            <mxPoint x="939.9999999999999" y="80" as="targetPoint" />
          </mxGeometry>
        </mxCell>
        <mxCell id="RCpCHY5iKIiHO_AiIjEv-88" value="&lt;font style=&quot;font-size: 18px&quot;&gt;账户&lt;/font&gt;" style="text;html=1;resizable=0;autosize=1;align=center;verticalAlign=middle;points=[];fillColor=none;strokeColor=none;rounded=0;" vertex="1" parent="RCpCHY5iKIiHO_AiIjEv-101">
          <mxGeometry x="935" y="52.5" width="50" height="20" as="geometry" />
        </mxCell>
        <mxCell id="RCpCHY5iKIiHO_AiIjEv-89" value="&lt;font style=&quot;font-size: 18px&quot;&gt;角色&lt;/font&gt;" style="text;html=1;resizable=0;autosize=1;align=center;verticalAlign=middle;points=[];fillColor=none;strokeColor=none;rounded=0;" vertex="1" parent="RCpCHY5iKIiHO_AiIjEv-101">
          <mxGeometry x="935" y="152.5" width="50" height="20" as="geometry" />
        </mxCell>
        <mxCell id="RCpCHY5iKIiHO_AiIjEv-90" value="&lt;font style=&quot;font-size: 18px&quot;&gt;权限点&lt;/font&gt;" style="text;html=1;resizable=0;autosize=1;align=center;verticalAlign=middle;points=[];fillColor=none;strokeColor=none;rounded=0;" vertex="1" parent="RCpCHY5iKIiHO_AiIjEv-101">
          <mxGeometry x="925" y="272.5" width="70" height="20" as="geometry" />
        </mxCell>
        <mxCell id="RCpCHY5iKIiHO_AiIjEv-91" value="&lt;font style=&quot;font-size: 18px&quot;&gt;页面按钮&lt;/font&gt;" style="text;html=1;resizable=0;autosize=1;align=center;verticalAlign=middle;points=[];fillColor=none;strokeColor=none;rounded=0;" vertex="1" parent="RCpCHY5iKIiHO_AiIjEv-101">
          <mxGeometry x="915" y="362.5" width="90" height="20" as="geometry" />
        </mxCell>
        <mxCell id="RCpCHY5iKIiHO_AiIjEv-103" value="" style="endArrow=none;dashed=1;html=1;dashPattern=1 3;strokeWidth=2;rounded=0;fontSize=20;" edge="1" parent="RCpCHY5iKIiHO_AiIjEv-117">
          <mxGeometry width="50" height="50" relative="1" as="geometry">
            <mxPoint x="40" y="235" as="sourcePoint" />
            <mxPoint x="1030" y="235" as="targetPoint" />
          </mxGeometry>
        </mxCell>
        <mxCell id="RCpCHY5iKIiHO_AiIjEv-104" value="" style="endArrow=none;dashed=1;html=1;dashPattern=1 3;strokeWidth=2;rounded=0;fontSize=20;" edge="1" parent="RCpCHY5iKIiHO_AiIjEv-117">
          <mxGeometry width="50" height="50" relative="1" as="geometry">
            <mxPoint x="50" y="325" as="sourcePoint" />
            <mxPoint x="1030" y="325" as="targetPoint" />
          </mxGeometry>
        </mxCell>
        <mxCell id="RCpCHY5iKIiHO_AiIjEv-118" value="" style="group" vertex="1" connectable="0" parent="1">
          <mxGeometry x="251.5" y="260" width="381" height="190" as="geometry" />
        </mxCell>
        <mxCell id="RCpCHY5iKIiHO_AiIjEv-94" value="" style="rounded=0;whiteSpace=wrap;html=1;fontSize=20;fillColor=#fff2cc;strokeColor=#d6b656;" vertex="1" parent="RCpCHY5iKIiHO_AiIjEv-118">
          <mxGeometry width="380" height="190" as="geometry" />
        </mxCell>
        <mxCell id="RCpCHY5iKIiHO_AiIjEv-30" value="cmp" style="rounded=1;whiteSpace=wrap;html=1;" vertex="1" parent="RCpCHY5iKIiHO_AiIjEv-118">
          <mxGeometry x="129.4545454545455" y="20" width="82.09090909090911" height="42" as="geometry" />
        </mxCell>
        <mxCell id="RCpCHY5iKIiHO_AiIjEv-35" value="account" style="rounded=1;whiteSpace=wrap;html=1;" vertex="1" parent="RCpCHY5iKIiHO_AiIjEv-118">
          <mxGeometry x="129.4545454545455" y="118" width="82.09090909090911" height="42" as="geometry" />
        </mxCell>
        <mxCell id="RCpCHY5iKIiHO_AiIjEv-38" value="mis" style="rounded=1;whiteSpace=wrap;html=1;" vertex="1" parent="RCpCHY5iKIiHO_AiIjEv-118">
          <mxGeometry x="20" y="118" width="82.09090909090911" height="42" as="geometry" />
        </mxCell>
        <mxCell id="RCpCHY5iKIiHO_AiIjEv-39" value="service" style="rounded=1;whiteSpace=wrap;html=1;" vertex="1" parent="RCpCHY5iKIiHO_AiIjEv-118">
          <mxGeometry x="238.909090909091" y="118" width="82.09090909090911" height="42" as="geometry" />
        </mxCell>
        <mxCell id="RCpCHY5iKIiHO_AiIjEv-40" value="" style="endArrow=classic;html=1;rounded=0;exitX=0.5;exitY=1;exitDx=0;exitDy=0;entryX=0.5;entryY=0;entryDx=0;entryDy=0;" edge="1" parent="RCpCHY5iKIiHO_AiIjEv-118" source="RCpCHY5iKIiHO_AiIjEv-30" target="RCpCHY5iKIiHO_AiIjEv-35">
          <mxGeometry width="50" height="50" relative="1" as="geometry">
            <mxPoint x="341.5227272727275" y="83" as="sourcePoint" />
            <mxPoint x="375.72727272727275" y="48" as="targetPoint" />
          </mxGeometry>
        </mxCell>
        <mxCell id="RCpCHY5iKIiHO_AiIjEv-41" value="" style="endArrow=classic;html=1;rounded=0;entryX=0.5;entryY=0;entryDx=0;entryDy=0;" edge="1" parent="RCpCHY5iKIiHO_AiIjEv-118" target="RCpCHY5iKIiHO_AiIjEv-38">
          <mxGeometry width="50" height="50" relative="1" as="geometry">
            <mxPoint x="170.5" y="62" as="sourcePoint" />
            <mxPoint x="88.40909090909099" y="55" as="targetPoint" />
            <Array as="points">
              <mxPoint x="170.5" y="90" />
              <mxPoint x="61.045454545454504" y="90" />
            </Array>
          </mxGeometry>
        </mxCell>
        <mxCell id="RCpCHY5iKIiHO_AiIjEv-42" value="" style="endArrow=classic;html=1;rounded=0;exitX=0.5;exitY=1;exitDx=0;exitDy=0;entryX=0.5;entryY=0;entryDx=0;entryDy=0;" edge="1" parent="RCpCHY5iKIiHO_AiIjEv-118" source="RCpCHY5iKIiHO_AiIjEv-30" target="RCpCHY5iKIiHO_AiIjEv-39">
          <mxGeometry width="50" height="50" relative="1" as="geometry">
            <mxPoint x="348.3636363636365" y="97" as="sourcePoint" />
            <mxPoint x="382.568181818182" y="62" as="targetPoint" />
            <Array as="points">
              <mxPoint x="170.5" y="90" />
              <mxPoint x="279.9545454545455" y="90" />
            </Array>
          </mxGeometry>
        </mxCell>
        <mxCell id="RCpCHY5iKIiHO_AiIjEv-108" value="&lt;font style=&quot;font-size: 16px&quot;&gt;平台&lt;/font&gt;" style="text;html=1;resizable=0;autosize=1;align=center;verticalAlign=middle;points=[];fillColor=none;strokeColor=none;rounded=0;fontSize=20;" vertex="1" parent="RCpCHY5iKIiHO_AiIjEv-118">
          <mxGeometry x="321" y="32" width="50" height="30" as="geometry" />
        </mxCell>
        <mxCell id="RCpCHY5iKIiHO_AiIjEv-110" value="" style="endArrow=none;dashed=1;html=1;dashPattern=1 3;strokeWidth=2;rounded=0;fontSize=20;entryX=0.943;entryY=0.462;entryDx=0;entryDy=0;entryPerimeter=0;" edge="1" parent="RCpCHY5iKIiHO_AiIjEv-118">
          <mxGeometry width="50" height="50" relative="1" as="geometry">
            <mxPoint x="10" y="90.5" as="sourcePoint" />
            <mxPoint x="370.10000000000036" y="90" as="targetPoint" />
          </mxGeometry>
        </mxCell>
        <mxCell id="RCpCHY5iKIiHO_AiIjEv-111" value="&lt;font style=&quot;font-size: 16px&quot;&gt;控制台&lt;/font&gt;" style="text;html=1;resizable=0;autosize=1;align=center;verticalAlign=middle;points=[];fillColor=none;strokeColor=none;rounded=0;fontSize=20;" vertex="1" parent="RCpCHY5iKIiHO_AiIjEv-118">
          <mxGeometry x="321" y="124" width="60" height="30" as="geometry" />
        </mxCell>
        <mxCell id="RCpCHY5iKIiHO_AiIjEv-119" value="" style="group" vertex="1" connectable="0" parent="1">
          <mxGeometry x="765" y="260" width="380" height="190" as="geometry" />
        </mxCell>
        <mxCell id="RCpCHY5iKIiHO_AiIjEv-95" value="" style="rounded=0;whiteSpace=wrap;html=1;fontSize=20;fillColor=#fff2cc;strokeColor=#d6b656;" vertex="1" parent="RCpCHY5iKIiHO_AiIjEv-119">
          <mxGeometry width="380" height="190" as="geometry" />
        </mxCell>
        <mxCell id="RCpCHY5iKIiHO_AiIjEv-82" value="" style="group" vertex="1" connectable="0" parent="RCpCHY5iKIiHO_AiIjEv-119">
          <mxGeometry x="11" y="20" width="300" height="140" as="geometry" />
        </mxCell>
        <mxCell id="RCpCHY5iKIiHO_AiIjEv-43" value="account" style="rounded=1;whiteSpace=wrap;html=1;" vertex="1" parent="RCpCHY5iKIiHO_AiIjEv-82">
          <mxGeometry x="109.09090909090908" width="81.81818181818181" height="42" as="geometry" />
        </mxCell>
        <mxCell id="RCpCHY5iKIiHO_AiIjEv-44" value="弹性计算" style="rounded=1;whiteSpace=wrap;html=1;" vertex="1" parent="RCpCHY5iKIiHO_AiIjEv-82">
          <mxGeometry x="109.09090909090908" y="98" width="81.81818181818181" height="42" as="geometry" />
        </mxCell>
        <mxCell id="RCpCHY5iKIiHO_AiIjEv-45" value="系统部" style="rounded=1;whiteSpace=wrap;html=1;" vertex="1" parent="RCpCHY5iKIiHO_AiIjEv-82">
          <mxGeometry y="98" width="81.81818181818181" height="42" as="geometry" />
        </mxCell>
        <mxCell id="RCpCHY5iKIiHO_AiIjEv-46" value="花小猪" style="rounded=1;whiteSpace=wrap;html=1;" vertex="1" parent="RCpCHY5iKIiHO_AiIjEv-82">
          <mxGeometry x="218.18181818181816" y="98" width="81.81818181818181" height="42" as="geometry" />
        </mxCell>
        <mxCell id="RCpCHY5iKIiHO_AiIjEv-47" value="" style="endArrow=classic;html=1;rounded=0;exitX=0.5;exitY=1;exitDx=0;exitDy=0;entryX=0.5;entryY=0;entryDx=0;entryDy=0;" edge="1" parent="RCpCHY5iKIiHO_AiIjEv-82" source="RCpCHY5iKIiHO_AiIjEv-43" target="RCpCHY5iKIiHO_AiIjEv-44">
          <mxGeometry width="50" height="50" relative="1" as="geometry">
            <mxPoint x="320.45454545454544" y="62.99999999999999" as="sourcePoint" />
            <mxPoint x="354.5454545454545" y="28" as="targetPoint" />
          </mxGeometry>
        </mxCell>
        <mxCell id="RCpCHY5iKIiHO_AiIjEv-48" value="" style="endArrow=classic;html=1;rounded=0;entryX=0.5;entryY=0;entryDx=0;entryDy=0;" edge="1" parent="RCpCHY5iKIiHO_AiIjEv-82" target="RCpCHY5iKIiHO_AiIjEv-45">
          <mxGeometry width="50" height="50" relative="1" as="geometry">
            <mxPoint x="150" y="42" as="sourcePoint" />
            <mxPoint x="68.18181818181817" y="35" as="targetPoint" />
            <Array as="points">
              <mxPoint x="150" y="70" />
              <mxPoint x="40.90909090909091" y="70" />
            </Array>
          </mxGeometry>
        </mxCell>
        <mxCell id="RCpCHY5iKIiHO_AiIjEv-49" value="" style="endArrow=classic;html=1;rounded=0;exitX=0.5;exitY=1;exitDx=0;exitDy=0;entryX=0.5;entryY=0;entryDx=0;entryDy=0;" edge="1" parent="RCpCHY5iKIiHO_AiIjEv-82" source="RCpCHY5iKIiHO_AiIjEv-43" target="RCpCHY5iKIiHO_AiIjEv-46">
          <mxGeometry width="50" height="50" relative="1" as="geometry">
            <mxPoint x="327.27272727272725" y="77" as="sourcePoint" />
            <mxPoint x="361.3636363636363" y="42" as="targetPoint" />
            <Array as="points">
              <mxPoint x="150" y="70" />
              <mxPoint x="259.09090909090907" y="70" />
            </Array>
          </mxGeometry>
        </mxCell>
        <mxCell id="RCpCHY5iKIiHO_AiIjEv-109" value="" style="endArrow=none;dashed=1;html=1;dashPattern=1 3;strokeWidth=2;rounded=0;fontSize=20;entryX=0.943;entryY=0.462;entryDx=0;entryDy=0;entryPerimeter=0;" edge="1" parent="RCpCHY5iKIiHO_AiIjEv-82">
          <mxGeometry width="50" height="50" relative="1" as="geometry">
            <mxPoint x="11" y="70" as="sourcePoint" />
            <mxPoint x="371.10000000000036" y="69.5" as="targetPoint" />
          </mxGeometry>
        </mxCell>
        <mxCell id="RCpCHY5iKIiHO_AiIjEv-112" value="&lt;font style=&quot;font-size: 16px&quot;&gt;控制台&lt;/font&gt;" style="text;html=1;resizable=0;autosize=1;align=center;verticalAlign=middle;points=[];fillColor=none;strokeColor=none;rounded=0;fontSize=20;" vertex="1" parent="RCpCHY5iKIiHO_AiIjEv-119">
          <mxGeometry x="306" y="30" width="60" height="30" as="geometry" />
        </mxCell>
        <mxCell id="RCpCHY5iKIiHO_AiIjEv-113" value="&lt;font style=&quot;font-size: 16px&quot;&gt;部门&lt;/font&gt;" style="text;html=1;resizable=0;autosize=1;align=center;verticalAlign=middle;points=[];fillColor=none;strokeColor=none;rounded=0;fontSize=20;" vertex="1" parent="RCpCHY5iKIiHO_AiIjEv-119">
          <mxGeometry x="320" y="120" width="50" height="30" as="geometry" />
        </mxCell>
        <mxCell id="RCpCHY5iKIiHO_AiIjEv-120" value="" style="group" vertex="1" connectable="0" parent="1">
          <mxGeometry x="1274" y="260" width="380" height="190" as="geometry" />
        </mxCell>
        <mxCell id="RCpCHY5iKIiHO_AiIjEv-96" value="" style="rounded=0;whiteSpace=wrap;html=1;fontSize=20;fillColor=#fff2cc;strokeColor=#d6b656;" vertex="1" parent="RCpCHY5iKIiHO_AiIjEv-120">
          <mxGeometry width="380" height="190" as="geometry" />
        </mxCell>
        <mxCell id="RCpCHY5iKIiHO_AiIjEv-83" value="" style="group" vertex="1" connectable="0" parent="RCpCHY5iKIiHO_AiIjEv-120">
          <mxGeometry x="16" y="20" width="300" height="140" as="geometry" />
        </mxCell>
        <mxCell id="RCpCHY5iKIiHO_AiIjEv-58" value="系统部" style="rounded=1;whiteSpace=wrap;html=1;" vertex="1" parent="RCpCHY5iKIiHO_AiIjEv-83">
          <mxGeometry x="75" width="128.57142857142856" height="42" as="geometry" />
        </mxCell>
        <mxCell id="RCpCHY5iKIiHO_AiIjEv-59" value="服务器及系统服务" style="rounded=1;whiteSpace=wrap;html=1;" vertex="1" parent="RCpCHY5iKIiHO_AiIjEv-83">
          <mxGeometry x="171.42857142857142" y="98" width="128.57142857142856" height="42" as="geometry" />
        </mxCell>
        <mxCell id="RCpCHY5iKIiHO_AiIjEv-60" value="混合云虚拟机" style="rounded=1;whiteSpace=wrap;html=1;" vertex="1" parent="RCpCHY5iKIiHO_AiIjEv-83">
          <mxGeometry y="98" width="128.57142857142856" height="42" as="geometry" />
        </mxCell>
        <mxCell id="RCpCHY5iKIiHO_AiIjEv-62" value="" style="endArrow=classic;html=1;rounded=0;exitX=0.5;exitY=1;exitDx=0;exitDy=0;entryX=0.5;entryY=0;entryDx=0;entryDy=0;" edge="1" parent="RCpCHY5iKIiHO_AiIjEv-83" source="RCpCHY5iKIiHO_AiIjEv-58" target="RCpCHY5iKIiHO_AiIjEv-59">
          <mxGeometry width="50" height="50" relative="1" as="geometry">
            <mxPoint x="407.1428571428571" y="62.99999999999999" as="sourcePoint" />
            <mxPoint x="460.7142857142857" y="28" as="targetPoint" />
            <Array as="points">
              <mxPoint x="139.28571428571428" y="70" />
              <mxPoint x="235.7142857142857" y="70" />
            </Array>
          </mxGeometry>
        </mxCell>
        <mxCell id="RCpCHY5iKIiHO_AiIjEv-63" value="" style="endArrow=classic;html=1;rounded=0;entryX=0.5;entryY=0;entryDx=0;entryDy=0;" edge="1" parent="RCpCHY5iKIiHO_AiIjEv-83" target="RCpCHY5iKIiHO_AiIjEv-60">
          <mxGeometry width="50" height="50" relative="1" as="geometry">
            <mxPoint x="139.28571428571428" y="42" as="sourcePoint" />
            <mxPoint x="10.714285714285714" y="35" as="targetPoint" />
            <Array as="points">
              <mxPoint x="139.28571428571428" y="70" />
              <mxPoint x="64.28571428571428" y="70" />
            </Array>
          </mxGeometry>
        </mxCell>
        <mxCell id="RCpCHY5iKIiHO_AiIjEv-107" value="" style="endArrow=none;dashed=1;html=1;dashPattern=1 3;strokeWidth=2;rounded=0;fontSize=20;entryX=0.943;entryY=0.462;entryDx=0;entryDy=0;entryPerimeter=0;" edge="1" parent="RCpCHY5iKIiHO_AiIjEv-83">
          <mxGeometry width="50" height="50" relative="1" as="geometry">
            <mxPoint x="-7" y="70" as="sourcePoint" />
            <mxPoint x="353.10000000000036" y="69.50000000000023" as="targetPoint" />
          </mxGeometry>
        </mxCell>
        <mxCell id="RCpCHY5iKIiHO_AiIjEv-114" value="&lt;font style=&quot;font-size: 16px&quot;&gt;部门&lt;/font&gt;" style="text;html=1;resizable=0;autosize=1;align=center;verticalAlign=middle;points=[];fillColor=none;strokeColor=none;rounded=0;fontSize=20;" vertex="1" parent="RCpCHY5iKIiHO_AiIjEv-120">
          <mxGeometry x="316" y="30" width="50" height="30" as="geometry" />
        </mxCell>
        <mxCell id="RCpCHY5iKIiHO_AiIjEv-115" value="&lt;font style=&quot;font-size: 16px&quot;&gt;账户&lt;/font&gt;" style="text;html=1;resizable=0;autosize=1;align=center;verticalAlign=middle;points=[];fillColor=none;strokeColor=none;rounded=0;fontSize=20;" vertex="1" parent="RCpCHY5iKIiHO_AiIjEv-120">
          <mxGeometry x="316" y="120" width="50" height="30" as="geometry" />
        </mxCell>
        <mxCell id="RCpCHY5iKIiHO_AiIjEv-123" value="" style="endArrow=classic;html=1;rounded=1;sketch=0;fontColor=#5C5C5C;strokeColor=#006658;fillColor=#21C0A5;curved=0;exitX=0.5;exitY=1;exitDx=0;exitDy=0;entryX=0.5;entryY=0;entryDx=0;entryDy=0;" edge="1" parent="1" source="RCpCHY5iKIiHO_AiIjEv-96" target="RCpCHY5iKIiHO_AiIjEv-97">
          <mxGeometry width="50" height="50" relative="1" as="geometry">
            <mxPoint x="100" y="660" as="sourcePoint" />
            <mxPoint x="150" y="610" as="targetPoint" />
            <Array as="points">
              <mxPoint x="1464" y="490" />
              <mxPoint x="995" y="500" />
            </Array>
          </mxGeometry>
        </mxCell>
        <mxCell id="RCpCHY5iKIiHO_AiIjEv-124" value="" style="endArrow=classic;html=1;rounded=1;sketch=0;fontColor=#5C5C5C;strokeColor=#006658;fillColor=#21C0A5;curved=0;exitX=1;exitY=0.5;exitDx=0;exitDy=0;entryX=0;entryY=0.5;entryDx=0;entryDy=0;" edge="1" parent="1" source="RCpCHY5iKIiHO_AiIjEv-94" target="RCpCHY5iKIiHO_AiIjEv-95">
          <mxGeometry width="50" height="50" relative="1" as="geometry">
            <mxPoint x="730" y="110" as="sourcePoint" />
            <mxPoint x="780" y="60" as="targetPoint" />
          </mxGeometry>
        </mxCell>
        <mxCell id="RCpCHY5iKIiHO_AiIjEv-125" value="" style="endArrow=classic;html=1;rounded=1;sketch=0;fontColor=#5C5C5C;strokeColor=#006658;fillColor=#21C0A5;curved=0;exitX=1;exitY=0.5;exitDx=0;exitDy=0;entryX=0;entryY=0.5;entryDx=0;entryDy=0;" edge="1" parent="1" source="RCpCHY5iKIiHO_AiIjEv-95" target="RCpCHY5iKIiHO_AiIjEv-96">
          <mxGeometry width="50" height="50" relative="1" as="geometry">
            <mxPoint x="1200" y="80" as="sourcePoint" />
            <mxPoint x="1250" y="30" as="targetPoint" />
          </mxGeometry>
        </mxCell>
      </root>
    </mxGraphModel>
  </diagram>
</mxfile>
